# xmcd
# 
# Track frame offsets:
#     150
#     29500
#     55683
#     84162
#     110525
#     131115
#     164214
#     196273
#     227899
#     266168
# 
# Disc length: 4024
# 
# Revision: 1
# Processed by: cddbd v1.5.2PL0 Copyright (c) Steve Scherf et al.
# Submitted via: fre:ac v1.0.17
# 
DISCID=8c0fb60a
DTITLE=Various Artist - Solar: The Ultimate 12" Collection
DYEAR=2008
DGENRE=R&B
TTITLE0=Midnight Star - Midas Touch
TTITLE1=Carrie Lucas - Show Me Where You're Coming From
TTITLE2=Shalamar - There It Is
TTITLE3=Whispers - No Pain No Gain
TTITLE4=Shalamar - Over And Over
TTITLE5=Dynasty - I Don't Wanna Be A Freak, But I Can't Help Myself
TTITLE6=Lakeside - It's All The Way Live
TTITLE7=Collage - Romeo Where's Juliet?
TTITLE8=Midnight Star - Freak-A-Zoid
TTITLE9=The Deele - Street Beat
EXTD=
EXTT0=
EXTT1=
EXTT2=
EXTT3=
EXTT4=
EXTT5=
EXTT6=
EXTT7=
EXTT8=
EXTT9=
PLAYORDER=
